<?xml version="1.0" encoding="UTF-8" standalone="no"?>
<!-- Created with Inkscape (http://www.inkscape.org/) -->
<svg
   xmlns:dc="http://purl.org/dc/elements/1.1/"
   xmlns:cc="http://creativecommons.org/ns#"
   xmlns:rdf="http://www.w3.org/1999/02/22-rdf-syntax-ns#"
   xmlns:svg="http://www.w3.org/2000/svg"
   xmlns="http://www.w3.org/2000/svg"
   xmlns:sodipodi="http://sodipodi.sourceforge.net/DTD/sodipodi-0.dtd"
   xmlns:inkscape="http://www.inkscape.org/namespaces/inkscape"
   width="1024px"
   height="768px"
   id="svg2383"
   sodipodi:version="0.32"
   inkscape:version="0.46"
   sodipodi:docname="downcall6.svg"
   inkscape:output_extension="org.inkscape.output.svg.inkscape"
   inkscape:export-filename="/home/kelvin/Desktop/downcall.png"
   inkscape:export-xdpi="73.32"
   inkscape:export-ydpi="73.32">
  <defs
     id="defs2385">
    <inkscape:perspective
       sodipodi:type="inkscape:persp3d"
       inkscape:vp_x="0 : 384 : 1"
       inkscape:vp_y="0 : 1000 : 0"
       inkscape:vp_z="1024 : 384 : 1"
       inkscape:persp3d-origin="512 : 256 : 1"
       id="perspective2391" />
  </defs>
  <sodipodi:namedview
     id="base"
     pagecolor="#ffffff"
     bordercolor="#666666"
     borderopacity="1.0"
     inkscape:pageopacity="0.0"
     inkscape:pageshadow="2"
     inkscape:zoom="1"
     inkscape:cx="612.10283"
     inkscape:cy="365.90358"
     inkscape:current-layer="layer1"
     inkscape:document-units="px"
     showgrid="false"
     showguides="true"
     inkscape:guide-bbox="true"
     inkscape:window-width="1680"
     inkscape:window-height="975"
     inkscape:window-x="1024"
     inkscape:window-y="25" />
  <metadata
     id="metadata2388">
    <rdf:RDF>
      <cc:Work
         rdf:about="">
        <dc:format>image/svg+xml</dc:format>
        <dc:type
           rdf:resource="http://purl.org/dc/dcmitype/StillImage" />
      </cc:Work>
    </rdf:RDF>
  </metadata>
  <g
     inkscape:groupmode="layer"
     id="layer2">
    <rect
       style="opacity:1;fill:#e6e6e6;fill-opacity:1;stroke:none;stroke-width:1;stroke-miterlimit:4;stroke-dasharray:none;stroke-opacity:1"
       id="rect3867"
       width="1021"
       height="729.33331"
       x="0"
       y="36.333336"
       inkscape:export-filename="/home/kelvin/Desktop/downcall.png"
       inkscape:export-xdpi="73.32"
       inkscape:export-ydpi="73.32" />
    <rect
       style="opacity:0.97520662;fill:#f6f6f6;fill-opacity:1;stroke:#666666;stroke-width:0.9217571;stroke-miterlimit:4;stroke-dasharray:none;stroke-opacity:1"
       id="rect3806"
       width="719.67133"
       height="569.84961"
       x="140.15219"
       y="20.158197"
       ry="7.4909887"
       rx="6.6727905" />
  </g>
  <g
     id="layer1"
     inkscape:label="Layer 1"
     inkscape:groupmode="layer">
    <rect
       style="opacity:1;fill:#c3d9ff;fill-opacity:1;stroke:none;stroke-width:1;stroke-miterlimit:4;stroke-dasharray:none;stroke-opacity:1"
       id="rect2393"
       width="1023.6829"
       height="35"
       x="0.20917432"
       y="0.5"
       ry="0"
       rx="0" />
    <rect
       style="opacity:1;fill:#666666;fill-opacity:1;stroke:none;stroke-width:0.3825433;stroke-miterlimit:4;stroke-dasharray:none;stroke-opacity:1"
       id="rect3244"
       width="1023.7304"
       height="0.89709425"
       x="0.1371115"
       y="35.378143"
       ry="0" />
    <path
       style="font-size:13.48476696px;font-style:normal;font-weight:normal;fill:#464646;fill-opacity:1;stroke:none;stroke-width:1px;stroke-linecap:butt;stroke-linejoin:miter;stroke-opacity:1;font-family:Bitstream Vera Sans"
       d="M 153.4859,16.555149 C 153.48589,18.556052 153.0034,20.212423 152.03841,21.524267 C 151.171,22.690355 149.97289,23.31315 148.44409,23.392656 C 148.30313,23.405907 148.15133,23.412532 147.9887,23.412532 L 144.31306,23.412532 L 144.31306,9.7772709 L 147.54957,9.7772709 C 148.89405,9.7772849 149.90784,9.9627979 150.59093,10.333812 C 151.01378,10.572343 151.40411,10.896992 151.76193,11.30776 C 152.91124,12.632869 153.48589,14.381997 153.4859,16.555149 M 150.80236,16.455766 C 150.80235,15.249935 150.53671,14.222985 150.00543,13.374912 C 149.5934,12.725626 149.02958,12.36785 148.31398,12.301583 L 147.8098,12.281707 L 146.91528,12.281707 L 146.91528,20.848467 L 147.79353,20.848467 C 148.66094,20.84847 149.30065,20.603326 149.71267,20.113038 C 149.88615,19.927528 150.04337,19.68901 150.18433,19.397484 C 150.59634,18.575928 150.80235,17.595357 150.80236,16.455766 M 164.14131,16.575025 C 164.1413,18.748191 163.68049,20.490694 162.75887,21.802537 C 162.61791,22.014555 162.46612,22.206695 162.30348,22.378955 C 161.51197,23.200517 160.54155,23.611297 159.39224,23.611297 C 157.62489,23.611297 156.31294,22.703605 155.45638,20.88822 C 154.89256,19.669134 154.61065,18.231403 154.61065,16.575025 C 154.61065,14.348869 155.09315,12.58649 156.05814,11.287883 C 156.90386,10.148312 158.01523,9.5785199 159.39224,9.5785069 C 161.10537,9.5785199 162.39564,10.466335 163.26306,12.241954 C 163.84855,13.461054 164.1413,14.90541 164.14131,16.575025 M 161.40897,16.594902 C 161.40896,13.653193 160.73672,12.182335 159.39224,12.182324 C 158.09113,12.182335 157.40804,13.52731 157.34299,16.217249 C 157.34299,16.336514 157.34299,16.455774 157.34299,16.575025 C 157.34299,19.529998 158.02607,21.007481 159.39224,21.007479 C 160.73672,21.007481 161.40896,19.536623 161.40897,16.594902 M 179.25303,9.7772709 L 176.45563,23.412532 L 173.88593,23.412532 L 172.06437,14.388614 L 172.03184,14.388614 L 170.27534,23.412532 L 167.73818,23.412532 L 164.85946,9.7772709 L 167.52674,9.7772709 L 169.23445,18.960202 L 169.26698,18.960202 L 171.07227,9.7772709 L 173.47934,9.7772709 L 175.34968,18.960202 L 175.38221,18.960202 L 175.4798,18.363908 L 177.10619,9.7772709 L 179.25303,9.7772709 M 189.05024,23.412532 L 186.82209,23.412532 L 182.54469,14.249478 L 182.47963,14.249478 L 182.47963,23.412532 L 180.46291,23.412532 L 180.46291,9.7772709 L 183.27656,9.7772709 L 187.00099,17.78749 L 187.03352,17.78749 L 187.03352,9.7772709 L 189.05024,9.7772709 L 189.05024,23.412532 M 200.22609,18.642179 C 200.0526,20.629828 199.33699,22.047682 198.07925,22.895744 C 197.37448,23.37278 196.55586,23.611297 195.62341,23.611297 C 193.83437,23.611297 192.49531,22.730107 191.60621,20.967727 C 190.99903,19.74864 190.69544,18.291032 190.69544,16.594902 C 190.69544,14.355495 191.20504,12.58649 192.22424,11.287883 C 193.11334,10.148312 194.2735,9.5785199 195.70472,9.5785069 C 197.99251,9.5785199 199.42915,10.87049 200.01466,13.454419 C 200.11223,13.87846 200.18271,14.342244 200.22609,14.845772 L 197.49375,15.064413 C 197.37448,13.196035 196.75103,12.222089 195.62341,12.142572 C 194.27891,12.142583 193.60667,13.67307 193.60667,16.734037 C 193.60667,18.708439 193.92111,19.987157 194.54999,20.570197 C 194.86442,20.861721 195.26559,21.007481 195.75351,21.007479 C 196.61008,21.007481 197.201,20.43769 197.52628,19.298103 C 197.60217,19.033086 197.65639,18.748191 197.68892,18.443414 L 200.22609,18.642179 M 211.12545,23.412532 L 208.31179,23.412532 L 207.62872,20.609949 L 204.01812,20.609949 L 203.31878,23.412532 L 201.02556,23.412532 L 204.60362,9.7772709 L 207.62872,9.7772709 L 211.12545,23.412532 M 207.02695,18.105513 L 205.83968,13.315283 L 204.65241,18.105513 L 207.02695,18.105513 M 219.38142,23.412532 L 212.29036,23.412532 L 212.29036,9.7772709 L 214.89259,9.7772709 L 214.89259,20.709332 L 219.38142,20.709332 L 219.38142,23.412532 M 227.51337,23.412532 L 220.42231,23.412532 L 220.42231,9.7772709 L 223.02454,9.7772709 L 223.02454,20.709332 L 227.51337,20.709332 L 227.51337,23.412532"
       id="text3556"
       sodipodi:nodetypes="ccsccccssccscccccsscccsscssscccsssscccccccccccccccccccccccccccccccccsscsssscccssssccccccccccccccccccccccccccccc" />
    <rect
       style="opacity:1;fill:#464646;fill-opacity:1;stroke:none;stroke-width:0.56801283;stroke-miterlimit:4;stroke-dasharray:none;stroke-opacity:1"
       id="rect3622"
       width="0.80855805"
       height="26.948471"
       x="-238.24031"
       y="-30.640234"
       rx="0.82252055"
       ry="2.9135468"
       transform="scale(-1,-1)" />
    <text
       xml:space="preserve"
       style="font-size:12px;font-style:normal;font-weight:normal;fill:#000000;fill-opacity:1;stroke:none;stroke-width:1px;stroke-linecap:butt;stroke-linejoin:miter;stroke-opacity:1;font-family:Bitstream Vera Sans"
       x="253.33603"
       y="21.165991"
       id="text3536"><tspan
         sodipodi:role="line"
         id="tspan3538"
         x="253.33603"
         y="21.165991">Clients   |    Dashboards    |    Settings    |    Support   </tspan></text>
    <rect
       style="opacity:0.97520662;fill:#fff9d8;fill-opacity:1;stroke:#666666;stroke-width:1;stroke-miterlimit:4;stroke-dasharray:none;stroke-opacity:1"
       id="rect3390"
       width="204"
       height="20"
       x="633.36316"
       y="6.9105544"
       rx="0"
       ry="0" />
    <text
       xml:space="preserve"
       style="font-size:12px;font-style:normal;font-weight:normal;fill:#000000;fill-opacity:1;stroke:none;stroke-width:1px;stroke-linecap:butt;stroke-linejoin:miter;stroke-opacity:1;font-family:Bitstream Vera Sans"
       x="638.47943"
       y="21.24687"
       id="text3392"><tspan
         sodipodi:role="line"
         id="tspan3394"
         x="638.47943"
         y="21.24687">Search...</tspan></text>
    <rect
       style="opacity:1;fill:#808080;fill-opacity:1;stroke:none;stroke-width:1;stroke-miterlimit:4;stroke-dasharray:none;stroke-opacity:1"
       id="rect3919"
       width="1023.6829"
       height="122"
       x="0.15856934"
       y="647.5"
       ry="0"
       rx="0" />
  </g>
</svg>
